<?xml version="1.0" encoding="UTF-8" standalone="no"?>
<!DOCTYPE svg PUBLIC "-//W3C//DTD SVG 1.1//EN" "http://www.w3.org/Graphics/SVG/1.1/DTD/svg11.dtd">
<svg width="100%" height="100%" viewBox="0 0 1000 1000" version="1.1" xmlns="http://www.w3.org/2000/svg" xmlns:xlink="http://www.w3.org/1999/xlink" xml:space="preserve" xmlns:serif="http://www.serif.com/" style="fill-rule:evenodd;clip-rule:evenodd;stroke-linejoin:round;stroke-miterlimit:2;">
    <g transform="matrix(0.0390158,0,0,-0.0390158,304.914,504.676)">
        <path d="M4636.5,5000.2C3962.4,4923.6 3363.1,4674.7 2978.2,4308.9C2570.3,3920.2 2375,3479.7 2344.4,2876.5L2332.9,2635.2L2248.6,2600.7C2118.4,2547.1 1965.2,2393.9 1894.3,2248.4L1831.1,2120.1L1831.1,1009.5L1884.7,900.3C1963.2,739.5 2089.6,609.2 2237.1,536.5C2348.2,482.9 2388.4,473.3 2551.1,467.6L2738.8,459.9L2744.6,1777.4C2752.3,3073.8 2752.3,3098.7 2794.4,3250C2982.1,3920.2 3485.7,4347.2 4320.6,4538.7C5163.2,4732.1 6132.1,4544.5 6683.6,4083C6928.7,3876.2 7116.4,3579.4 7206.4,3250C7248.5,3100.6 7248.5,3070 7256.2,1777.4L7261.9,459.9L7447.7,467.6C7597.1,473.3 7654.5,484.8 7740.7,525.1C7939.9,617 8089.2,791.3 8150.5,1005.7C8177.3,1097.6 8181.1,1193.4 8175.4,1618.5L8169.7,2120.2L8106.5,2248.5C8035.7,2395.9 7882.5,2547.2 7750.3,2600.8L7662.2,2637.2L7662.2,2790.4C7662.2,3363 7445.8,3903 7064.7,4276.4C6526.5,4804.9 5534.6,5101.7 4636.5,5000.2Z" style="fill-rule:nonzero;"/>
        <path d="M4605.8,4071.5C3849.4,3945.1 3334.3,3510.4 3169.6,2861.3C3060.5,2428.5 3070,1503.6 3192.6,894.7C3232.8,697.5 3250.1,664.9 3395.6,529C3610.1,329.8 3903.1,163.2 4207.5,69.4L4362.6,23.5L4446.9,61.8C4521.6,94.4 4573.3,100.1 4923.7,100.1C5381.4,100.1 5419.7,90.5 5494.4,-55C5563.3,-187.1 5525,-321.2 5396.7,-397.8C5341.2,-432.3 5297.1,-436.1 4927.5,-436.1C4477.5,-436.1 4423.9,-426.5 4351.1,-323.1C4328.1,-290.5 4297.5,-263.7 4284.1,-263.7C4190.3,-263.7 3753.7,-87.5 3566,27.4C3499,67.6 3439.6,96.3 3435.8,92.5C3405.2,63.8 3700.1,-478.1 3837.9,-650.5C3910.7,-740.5 3926,-771.1 3906.8,-784.5C3891.5,-794.1 3500.8,-989.4 3037.4,-1221.1C2351.9,-1563.9 2160.4,-1667.3 2012.9,-1778.3C1467.1,-2188.1 1097.6,-2678.3 911.8,-3237.5C789.2,-3607.1 735.6,-3995.8 793.1,-4104.9C833.3,-4183.4 946.3,-4281.1 1047.8,-4323.2C1155,-4371.1 1484.4,-4441.9 1907.6,-4512.8C3516.1,-4780.9 4975.3,-4844.1 6513,-4715.8C7416.8,-4639.2 8697.9,-4434.3 8952.6,-4323.2C9052.2,-4281.1 9167.1,-4183.4 9205.4,-4110.7C9278.2,-3969 9180.5,-3423.2 9012,-3034.5C8812.8,-2569.2 8460.5,-2134.5 8006.7,-1793.6C7834.4,-1661.5 7685,-1581 6940.1,-1209.6C6463.3,-974.1 6072.6,-773 6072.6,-763.4C6072.6,-755.7 6089.8,-732.8 6112.8,-711.7C6177.9,-652.3 6348.3,-384.2 6453.7,-173.6C6626,173 6783,691.9 6848.2,1130.5C6924.8,1638 6919,2505.4 6838.6,2834.8C6698.8,3407.4 6313.9,3805.7 5712.6,3995.2C5381.4,4098.3 4946.7,4129 4605.8,4071.5Z" style="fill-rule:nonzero;"/>
    </g>
    <g transform="matrix(0.0390158,0,0,-0.0390158,50.38,438.919)">
        <path d="M4636.5,5000.2C3962.4,4923.6 3363.1,4674.7 2978.2,4308.9C2570.3,3920.2 2375,3479.7 2344.4,2876.5L2332.9,2635.2L2248.6,2600.7C2118.4,2547.1 1965.2,2393.9 1894.3,2248.4L1831.1,2120.1L1831.1,1009.5L1884.7,900.3C1963.2,739.5 2089.6,609.2 2237.1,536.5C2348.2,482.9 2388.4,473.3 2551.1,467.6L2738.8,459.9L2744.6,1777.4C2752.3,3073.8 2752.3,3098.7 2794.4,3250C2982.1,3920.2 3485.7,4347.2 4320.6,4538.7C5163.2,4732.1 6132.1,4544.5 6683.6,4083C6928.7,3876.2 7116.4,3579.4 7206.4,3250C7248.5,3100.6 7248.5,3070 7256.2,1777.4L7261.9,459.9L7447.7,467.6C7597.1,473.3 7654.5,484.8 7740.7,525.1C7939.9,617 8089.2,791.3 8150.5,1005.7C8177.3,1097.6 8181.1,1193.4 8175.4,1618.5L8169.7,2120.2L8106.5,2248.5C8035.7,2395.9 7882.5,2547.2 7750.3,2600.8L7662.2,2637.2L7662.2,2790.4C7662.2,3363 7445.8,3903 7064.7,4276.4C6526.5,4804.9 5534.6,5101.7 4636.5,5000.2Z" style="fill-rule:nonzero;"/>
        <path d="M4605.8,4071.5C3849.4,3945.1 3334.3,3510.4 3169.6,2861.3C3060.5,2428.5 3070,1503.6 3192.6,894.7C3232.8,697.5 3250.1,664.9 3395.6,529C3610.1,329.8 3903.1,163.2 4207.5,69.4L4362.6,23.5L4446.9,61.8C4521.6,94.4 4573.3,100.1 4923.7,100.1C5381.4,100.1 5419.7,90.5 5494.4,-55C5563.3,-187.1 5525,-321.2 5396.7,-397.8C5341.2,-432.3 5297.1,-436.1 4927.5,-436.1C4477.5,-436.1 4423.9,-426.5 4351.1,-323.1C4328.1,-290.5 4297.5,-263.7 4284.1,-263.7C4190.3,-263.7 3753.7,-87.5 3566,27.4C3499,67.6 3439.6,96.3 3435.8,92.5C3405.2,63.8 3700.1,-478.1 3837.9,-650.5C3910.7,-740.5 3926,-771.1 3906.8,-784.5C3891.5,-794.1 3500.8,-989.4 3037.4,-1221.1C2351.9,-1563.9 2160.4,-1667.3 2012.9,-1778.3C1467.1,-2188.1 1097.6,-2678.3 911.8,-3237.5C789.2,-3607.1 735.6,-3995.8 793.1,-4104.9C833.3,-4183.4 946.3,-4281.1 1047.8,-4323.2C1155,-4371.1 1484.4,-4441.9 1907.6,-4512.8C3516.1,-4780.9 4975.3,-4844.1 6513,-4715.8C6662.27,-4703.15 6821.83,-4687 6985.36,-4668.35C7326.48,-3709.79 8127.32,-3018.43 8840.57,-2701.89C8635.74,-2363.64 8350.32,-2051.73 8006.7,-1793.6C7834.4,-1661.5 7685,-1581 6940.1,-1209.6C6463.3,-974.1 6072.6,-773 6072.6,-763.4C6072.6,-755.7 6089.8,-732.8 6112.8,-711.7C6177.9,-652.3 6348.3,-384.2 6453.7,-173.6C6626,173 6783,691.9 6848.2,1130.5C6924.8,1638 6919,2505.4 6838.6,2834.8C6698.8,3407.4 6313.9,3805.7 5712.6,3995.2C5381.4,4098.3 4946.7,4129 4605.8,4071.5Z" style="fill-rule:nonzero;"/>
    </g>
    <g transform="matrix(0.0390158,0,0,-0.0390158,555.245,438.919)">
        <path d="M4636.5,5000.2C3962.4,4923.6 3363.1,4674.7 2978.2,4308.9C2570.3,3920.2 2375,3479.7 2344.4,2876.5L2332.9,2635.2L2248.6,2600.7C2118.4,2547.1 1965.2,2393.9 1894.3,2248.4L1831.1,2120.1L1831.1,1009.5L1884.7,900.3C1963.2,739.5 2089.6,609.2 2237.1,536.5C2348.2,482.9 2388.4,473.3 2551.1,467.6L2738.8,459.9L2744.6,1777.4C2752.3,3073.8 2752.3,3098.7 2794.4,3250C2982.1,3920.2 3485.7,4347.2 4320.6,4538.7C5163.2,4732.1 6132.1,4544.5 6683.6,4083C6928.7,3876.2 7116.4,3579.4 7206.4,3250C7248.5,3100.6 7248.5,3070 7256.2,1777.4L7261.9,459.9L7447.7,467.6C7597.1,473.3 7654.5,484.8 7740.7,525.1C7939.9,617 8089.2,791.3 8150.5,1005.7C8177.3,1097.6 8181.1,1193.4 8175.4,1618.5L8169.7,2120.2L8106.5,2248.5C8035.7,2395.9 7882.5,2547.2 7750.3,2600.8L7662.2,2637.2L7662.2,2790.4C7662.2,3363 7445.8,3903 7064.7,4276.4C6526.5,4804.9 5534.6,5101.7 4636.5,5000.2Z" style="fill-rule:nonzero;"/>
        <path d="M4605.8,4071.5C3849.4,3945.1 3334.3,3510.4 3169.6,2861.3C3060.5,2428.5 3070,1503.6 3192.6,894.7C3232.8,697.5 3250.1,664.9 3395.6,529C3610.1,329.8 3903.1,163.2 4207.5,69.4L4362.6,23.5L4446.9,61.8C4521.6,94.4 4573.3,100.1 4923.7,100.1C5381.4,100.1 5419.7,90.5 5494.4,-55C5563.3,-187.1 5525,-321.2 5396.7,-397.8C5341.2,-432.3 5297.1,-436.1 4927.5,-436.1C4477.5,-436.1 4423.9,-426.5 4351.1,-323.1C4328.1,-290.5 4297.5,-263.7 4284.1,-263.7C4190.3,-263.7 3753.7,-87.5 3566,27.4C3499,67.6 3439.6,96.3 3435.8,92.5C3405.2,63.8 3700.1,-478.1 3837.9,-650.5C3910.7,-740.5 3926,-771.1 3906.8,-784.5C3891.5,-794.1 3500.8,-989.4 3037.4,-1221.1C2351.9,-1563.9 2160.4,-1667.3 2012.9,-1778.3C1664.78,-2039.68 1388.38,-2333.76 1185.62,-2657.6C2201.53,-3086.9 2955.3,-4088.47 3131.97,-4680.18C4277.65,-4800.8 5373.78,-4810.85 6513,-4715.8C7416.8,-4639.2 8697.9,-4434.3 8952.6,-4323.2C9052.2,-4281.1 9167.1,-4183.4 9205.4,-4110.7C9278.2,-3969 9180.5,-3423.2 9012,-3034.5C8812.8,-2569.2 8460.5,-2134.5 8006.7,-1793.6C7834.4,-1661.5 7685,-1581 6940.1,-1209.6C6463.3,-974.1 6072.6,-773 6072.6,-763.4C6072.6,-755.7 6089.8,-732.8 6112.8,-711.7C6177.9,-652.3 6348.3,-384.2 6453.7,-173.6C6626,173 6783,691.9 6848.2,1130.5C6924.8,1638 6919,2505.4 6838.6,2834.8C6698.8,3407.4 6313.9,3805.7 5712.6,3995.2C5381.4,4098.3 4946.7,4129 4605.8,4071.5Z" style="fill-rule:nonzero;"/>
    </g>
</svg>
