<?xml version="1.0" encoding="utf-8"?>
<!-- Svg Vector Icons : http://www.onlinewebfonts.com/icon -->
<!DOCTYPE svg PUBLIC "-//W3C//DTD SVG 1.1//EN" "http://www.w3.org/Graphics/SVG/1.1/DTD/svg11.dtd">
<svg version="1.1" xmlns="http://www.w3.org/2000/svg" xmlns:xlink="http://www.w3.org/1999/xlink" x="0px" y="0px" viewBox="0 0 1000 1000" enable-background="new 0 0 1000 1000" xml:space="preserve">
<metadata> Svg Vector Icons : http://www.onlinewebfonts.com/icon </metadata>
<g><g transform="translate(0.000000,512.000000) scale(0.100000,-0.100000)"><path d="M4636.5,5000.2c-674.1-76.6-1273.4-325.5-1658.3-691.3c-407.9-388.7-603.2-829.2-633.8-1432.4l-11.5-241.3l-84.3-34.5c-130.2-53.6-283.4-206.8-354.3-352.3l-63.2-128.3v-555.3v-555.3l53.6-109.2c78.5-160.8,204.9-291.1,352.4-363.8c111.1-53.6,151.3-63.2,314-68.9l187.7-7.7l5.8,1317.5c7.7,1296.4,7.7,1321.3,49.8,1472.6c187.7,670.2,691.3,1097.2,1526.2,1288.7c842.6,193.4,1811.5,5.8,2363-455.7c245.1-206.8,432.8-503.6,522.8-833c42.1-149.4,42.1-180,49.8-1472.6l5.7-1317.5l185.8,7.7c149.4,5.7,206.8,17.2,293,57.5c199.2,91.9,348.5,266.2,409.8,480.6c26.8,91.9,30.6,187.7,24.9,612.8l-5.7,501.7l-63.2,128.3c-70.8,147.4-224,298.7-356.2,352.3l-88.1,36.4v153.2c0,572.6-216.4,1112.6-597.5,1486C6526.5,4804.9,5534.6,5101.7,4636.5,5000.2z"/><path d="M4605.8,4071.5c-756.4-126.4-1271.5-561.1-1436.2-1210.2c-109.1-432.8-99.6-1357.7,23-1966.6c40.2-197.2,57.5-229.8,203-365.7c214.5-199.2,507.5-365.8,811.9-459.6l155.1-45.9l84.3,38.3c74.7,32.6,126.4,38.3,476.8,38.3c457.7,0,496-9.6,570.7-155.1c68.9-132.1,30.6-266.2-97.7-342.8c-55.5-34.5-99.6-38.3-469.2-38.3c-450,0-503.6,9.6-576.4,113c-23,32.6-53.6,59.4-67,59.4c-93.8,0-530.4,176.2-718.1,291.1c-67,40.2-126.4,68.9-130.2,65.1c-30.6-28.7,264.3-570.6,402.1-743c72.8-90,88.1-120.6,68.9-134c-15.3-9.6-406-204.9-869.4-436.6c-685.5-342.8-877-446.2-1024.5-557.2c-545.8-409.8-915.3-900-1101.1-1459.2c-122.6-369.6-176.2-758.3-118.7-867.4c40.2-78.5,153.2-176.2,254.7-218.3c107.2-47.9,436.6-118.7,859.8-189.6c1608.5-268.1,3067.7-331.3,4605.4-203c903.8,76.6,2184.9,281.5,2439.6,392.6c99.6,42.1,214.5,139.8,252.8,212.5c72.8,141.7-24.9,687.5-193.4,1076.2c-199.2,465.3-551.5,900-1005.3,1240.9c-172.3,132.1-321.7,212.6-1066.6,584c-476.8,235.5-867.5,436.6-867.5,446.2c0,7.7,17.2,30.6,40.2,51.7c65.1,59.4,235.5,327.5,340.9,538.1c172.3,346.6,329.3,865.5,394.5,1304.1c76.6,507.5,70.8,1374.9-9.6,1704.3c-139.8,572.6-524.7,970.9-1126,1160.4C5381.4,4098.3,4946.7,4129,4605.8,4071.5z"/></g></g>
</svg>